<svg xmlns="http://www.w3.org/2000/svg" viewBox="0 0 64 64">
  <defs>
    <linearGradient id="skyf" x1="0" y1="0" x2="0" y2="1">
      <stop offset="0%" stop-color="#81d4fa"/>
      <stop offset="100%" stop-color="#e1f5fe"/>
    </linearGradient>
    <linearGradient id="pasture" x1="0" y1="0" x2="0" y2="1">
      <stop offset="0%" stop-color="#7cb342"/>
      <stop offset="100%" stop-color="#33691e"/>
    </linearGradient>
  </defs>
  <rect width="64" height="64" rx="14" fill="url(#skyf)"/>
  <circle cx="50" cy="14" r="7" fill="#fdd835"/>
  <path d="M0 36 Q 30 26 64 36 L 64 64 L 0 64 Z" fill="#8bc34a"/>
  <path d="M0 42 Q 34 32 64 42 L 64 64 L 0 64 Z" fill="url(#pasture)"/>
  <polygon points="12,30 24,18 36,30" fill="#c62828" stroke="#ffffff" stroke-width="1.5"/>
  <rect x="14" y="30" width="20" height="18" fill="#d32f2f"/>
  <rect x="18" y="36" width="12" height="12" fill="#8e0000"/>
  <line x1="18" y1="36" x2="30" y2="48" stroke="#ffffff" stroke-width="1.5"/>
  <line x1="30" y1="36" x2="18" y2="48" stroke="#ffffff" stroke-width="1.5"/>
  <rect x="22" y="24" width="4" height="5" fill="#4e342e" stroke="#fff" stroke-width="1"/>
  <path d="M48 52 Q 44 40 40 32 Q 48 36 48 52 Z" fill="#fbc02d"/>
  <path d="M48 52 Q 52 40 56 32 Q 48 36 48 52 Z" fill="#fbc02d"/>
  <line x1="48" y1="52" x2="48" y2="28" stroke="#f57f17" stroke-width="2"/>
  <ellipse cx="48" cy="27" rx="3" ry="5" fill="#ffd54f"/>
</svg>